<svg width="64" height="64" viewBox="0 0 64 64" fill="none" xmlns="http://www.w3.org/2000/svg">
<path fill-rule="evenodd" clip-rule="evenodd" d="M32.0003 0.579788C14.3293 0.579788 0 14.9065 0 32.58C0 46.7186 9.16905 58.7137 21.8837 62.945C23.483 63.2412 24.0701 62.2508 24.0701 61.4056C24.0701 60.6425 24.0405 58.1218 24.0267 55.4478C15.1242 57.3836 13.2457 51.6722 13.2457 51.6722C11.79 47.9734 9.69261 46.9899 9.69261 46.9899C6.78923 45.0038 9.91146 45.0446 9.91146 45.0446C13.1248 45.2698 14.8168 48.3428 14.8168 48.3428C17.6709 53.2344 22.3029 51.82 24.129 51.0024C24.4162 48.9342 25.2455 47.5219 26.1606 46.7234C19.0529 45.9142 11.5812 43.1703 11.5812 30.9087C11.5812 27.415 12.8313 24.5604 14.8783 22.3194C14.5461 21.5129 13.4507 18.2587 15.1883 13.8509C15.1883 13.8509 17.8755 12.9908 23.9907 17.131C26.5432 16.422 29.2808 16.0664 32.0003 16.0542C34.7198 16.0664 37.4594 16.422 40.0168 17.131C46.1245 12.9908 48.808 13.8509 48.808 13.8509C50.5498 18.2587 49.4539 21.5129 49.1217 22.3194C51.1735 24.5604 52.4151 27.415 52.4151 30.9087C52.4151 43.1995 44.929 45.9057 37.8033 46.6979C38.9511 47.691 39.9738 49.6384 39.9738 52.6239C39.9738 56.9056 39.9367 60.3516 39.9367 61.4056C39.9367 62.2572 40.5128 63.255 42.1348 62.9408C54.8426 58.7047 64 46.7138 64 32.58C64 14.9065 49.6728 0.579788 32.0003 0.579788Z" fill="#1B1817"/>
</svg>
