<?xml version="1.0" encoding="UTF-8"?>
<svg width="94px" height="54px" viewBox="0 0 94 54" version="1.1" xmlns="http://www.w3.org/2000/svg" xmlns:xlink="http://www.w3.org/1999/xlink">
    <!-- Generator: Sketch 53.2 (72643) - https://sketchapp.com -->
    <title>Combined Shape 2</title>
    <desc>Created with Sketch.</desc>
    <g id="Page-1" stroke="none" stroke-width="1" fill="none" fill-rule="evenodd">
        <g id="Technologies" transform="translate(-192.000000, -665.000000)" fill="#FFFFFF" fill-rule="nonzero">
            <g id="Combined-Shape-2" transform="translate(192.000000, 665.000000)">
                <path d="M47.0763914,0.0578319168 C46.7180297,0.122819189 46.271041,0.287198758 45.9319461,0.482160574 C45.6121179,0.669476828 45.0957689,1.17408388 44.9185147,1.47608355 C44.263445,2.5961583 44.4214324,4.12527058 45.3192632,5.38678821 C45.6930383,5.91050916 46.4367351,6.56420466 47.0802447,6.92354605 L47.280619,7.03822947 L47.280619,7.23319128 C47.280619,7.95187405 47.1573117,10.6316433 47.0648313,11.9810849 C46.8875772,14.6264491 46.6602294,16.3696371 46.3018678,17.9255089 C46.2286541,18.2313313 46.1053469,18.7703434 46.0282799,19.1296848 C45.3269699,22.3140611 44.2480316,24.3745399 42.9417456,25.0282354 C42.244289,25.3761085 41.4620587,25.3646401 40.884056,24.9976532 C40.2944933,24.6230207 39.8706247,23.7896545 39.7665842,22.8148454 C39.7434641,22.5663647 39.7280507,20.467658 39.7280507,16.9545226 C39.7280507,10.8533646 39.7473174,11.3044527 39.4506094,10.7004534 C39.3234488,10.4405043 39.227115,10.3105297 38.9612338,10.0467579 C38.4988316,9.59184697 38.0672563,9.35101179 37.3582397,9.16751831 C36.922811,9.05665767 36.0365402,9.02607543 35.6666185,9.1101766 C35.3159636,9.19427778 34.980722,9.37394847 34.7919078,9.58420141 C34.5375866,9.87473274 34.5144665,10.0773401 34.6608939,10.7539723 C34.7148408,10.9948075 34.7726411,11.3885539 34.7957612,11.6255663 C34.8188813,11.8855154 34.8342947,14.018627 34.8342947,17.0042187 L34.8342947,21.950897 L34.6763073,22.3178839 C34.1214247,23.6138066 33.2968076,24.600084 32.4259502,25.0167671 C32.0213483,25.2117289 31.6899601,25.2767162 31.1736111,25.2728934 C30.2526601,25.2690706 29.5320834,24.9517798 28.8962805,24.2789704 C27.925236,23.2544652 27.5052207,21.5800872 27.6246746,19.2176088 C27.6747682,18.2427997 27.7441285,17.5661675 27.8789958,16.790143 C28.5957191,12.6653627 30.7420357,9.48863189 33.9094904,7.85630454 C35.5934049,6.9923561 37.3004394,6.67124252 39.1847282,6.85855877 C39.951545,6.93501439 40.3176134,6.92354605 40.5025743,6.81650819 C40.652855,6.72858423 40.7915756,6.48010349 40.8455225,6.19339493 C40.9033228,5.89139526 40.8917627,5.06567463 40.8262558,4.75602939 C40.6759751,4.0411694 40.1673327,3.40276503 39.4929962,3.08165145 C38.8918735,2.79494289 38.7338861,2.76818343 37.6665078,2.76818343 C37.1347453,2.76818343 36.5683027,2.79112011 36.3371016,2.81787958 C33.4971818,3.17339818 31.0233304,4.20937175 28.7845333,5.98314199 C28.2142373,6.4380529 27.1507124,7.4663809 26.696017,8.00539298 C24.6498875,10.4366815 23.3667216,13.3419948 22.8542259,16.7022191 C22.7077985,17.6579142 22.6499982,18.4186476 22.6345848,19.6572285 L22.6153181,20.8766956 L22.3609969,21.4692266 C21.3321521,23.8775784 19.9218256,26.1139051 18.1531374,28.1438017 L17.8602827,28.4802064 L17.841016,17.0959655 C17.8217492,6.49539461 17.8178959,5.69643344 17.7562422,5.50147163 C17.4980677,4.675751 16.8352913,3.99147325 15.9798473,3.66271411 C15.3787246,3.43334727 14.5579608,3.32248663 14.0184916,3.39511946 C13.4790224,3.4677523 13.0320337,3.69329636 12.816246,4.00294159 C12.6466986,4.239954 12.6389919,4.53813089 12.7777125,5.13830746 L12.8856063,5.59704114 L12.8971664,11.2165288 L12.9125798,16.8360164 L12.8123927,17.3520918 C12.1920031,20.5173542 10.9820509,23.2353513 9.63337795,24.4739322 C8.9898683,25.0626404 8.36177206,25.3417034 7.66816885,25.3417034 C6.01508119,25.3417034 4.99779648,23.8546417 4.77815546,21.1213535 C4.69723509,20.1006711 4.74732865,17.9675595 4.893756,16.2358398 C5.08642356,13.9727536 5.41010506,12.1607556 6.22316216,8.78906303 C6.59693722,7.2293685 6.63932408,7.08792562 6.91676537,6.45334402 C7.25586027,5.67349676 7.36375411,5.30268703 7.37146081,4.88982672 C7.37531416,4.51137143 7.30980719,4.33170073 7.10172623,4.11762502 C6.81272489,3.8232709 6.34261604,3.7047647 5.46019862,3.7047647 C3.79169756,3.7047647 2.89386674,4.02970106 2.54706513,4.75602939 C2.50082492,4.85159891 2.41990454,5.08861131 2.36595762,5.28357313 C2.31201071,5.47853494 2.22723698,5.7652435 2.17714342,5.9219775 C1.86502197,6.90060936 1.27160589,9.50392302 0.909390879,11.4650095 C0.296708041,14.7908287 -1.21936341e-13,17.6579142 -1.21617527e-13,20.2612279 C-1.21347869e-13,22.4631496 0.238907773,23.9922619 0.81691045,25.437273 C1.78024825,27.8570931 3.48342947,29.2600536 5.79929353,29.550585 C6.38114955,29.619395 7.43311443,29.5773444 7.94175678,29.4588382 C9.69888492,29.0498007 11.1824251,27.876207 12.5696316,25.8080827 L12.9087265,25.2958301 L12.9087265,29.2868131 L12.9048731,33.2739734 L12.0686959,34.0079473 C8.62765329,37.0202985 7.0015391,38.9775622 5.99581444,41.3209267 C5.33303803,42.8653301 5.02476994,44.3600374 4.98238308,46.2217316 C4.94770292,47.7431983 5.09798361,48.7447669 5.52570559,49.8457277 C6.60849727,52.6172437 8.95904149,54.2075205 11.6486806,53.9781536 C14.8623755,53.7067362 17.0318122,51.37484 17.6444951,47.5329454 C17.8178959,46.4319845 17.8178959,46.5313768 17.8371626,40.0938141 L17.8602827,33.9123778 L18.2648846,33.5606819 C20.0913731,31.9665824 21.5710599,30.4107106 22.7771588,28.8204339 C23.1933208,28.2699534 23.9100441,27.214866 24.1605119,26.7867145 C24.2568457,26.622335 24.3454728,26.4923604 24.3570328,26.500006 C24.3724462,26.5038288 24.4919001,26.6529172 24.622914,26.8325879 C24.9427422,27.2645621 25.6748789,27.9755993 26.1180143,28.2852446 C27.0081384,28.9083578 28.0215698,29.3021042 29.0966548,29.4473699 C30.6765287,29.6614456 32.0675885,29.462661 33.3507545,28.8433706 C34.113718,28.4725608 34.6377738,28.0941055 35.3467904,27.4098278 C35.6049649,27.1575243 35.8091925,26.9854991 35.8284593,27.0084358 C35.8438727,27.0275497 35.9556199,27.1728154 36.0789271,27.3333722 C36.5683027,27.9794221 37.3697997,28.6254721 38.1212032,28.9733451 C38.9573804,29.3632687 39.7164906,29.5200027 40.7684555,29.5200027 C41.5391257,29.5200027 41.9552877,29.4664838 42.6373308,29.2906359 C45.6044112,28.522257 48.005049,25.6781081 49.4693225,21.2131003 C50.2361393,18.8697357 50.528994,17.6464459 50.8603822,15.3910053 C51.176357,13.269362 51.4769184,9.89766943 51.4807718,8.51000003 L51.4807718,8.17741811 L54.259038,8.17741811 C56.8908768,8.17741811 57.0373042,8.18124089 57.0103307,8.24240539 C56.9294103,8.44118998 56.6750892,9.14458163 56.3745278,10.0008845 C54.5981329,15.0431322 53.7465423,19.2749505 53.842876,22.5893013 C53.9315031,25.5213741 54.9642012,27.5359796 56.9717972,28.6828138 C58.5632312,29.5888128 60.8829487,29.7914202 62.7325572,29.1797753 C63.8230556,28.8204339 64.7362998,28.243194 65.6688108,27.3295494 L66.1581864,26.8517018 L66.1813065,27.1154737 C66.273787,28.0902828 66.7323357,28.7936744 67.5376861,29.1988892 C67.8151274,29.3365093 68.3507432,29.4703066 68.8208521,29.5123572 C70.104018,29.6346862 70.7783545,29.2294714 71.0057022,28.208789 C71.0635025,27.9526627 71.0712092,27.3410177 71.0943293,22.4363901 C71.1213027,16.2625993 71.0943293,16.8398392 71.4295708,15.517157 C72.1077606,12.8106283 73.7146081,9.8632644 75.4486161,8.13536753 C76.4081006,7.17967235 77.1787708,6.82415375 77.7529201,7.06881171 C78.2076156,7.26377353 78.4619367,7.76838058 78.6122174,8.76994912 C78.6468976,8.99549318 78.6661644,11.0941998 78.6854311,16.7595608 C78.7008445,20.9837334 78.7239646,24.4930461 78.739378,24.5580334 C78.7547914,24.6191979 78.804885,24.8523875 78.8472719,25.070286 C78.9513123,25.6016525 79.1825134,26.2668164 79.4368346,26.7484867 C80.5928399,28.9542312 82.8277836,29.9175719 85.5598096,29.393851 C86.6811348,29.1797753 87.8217268,28.6369404 88.800478,27.8532704 C89.2089332,27.5245112 90.0065769,26.7102589 90.3572318,26.2591708 C91.6172777,24.6421346 92.6230023,22.5587191 93.3281656,20.0815572 C93.5940468,19.1602671 93.5747801,18.7206473 93.2510986,18.0593062 C92.9543905,17.4553069 92.4226281,16.9010037 91.9024257,16.6563457 C91.7020514,16.5607762 91.5864509,16.5301939 91.3321297,16.5187256 C91.0354216,16.5034345 90.9968881,16.51108 90.7656871,16.6219407 C90.4535656,16.7748519 90.2108045,17.0386238 90.0142836,17.4438385 C89.8485895,17.784066 89.7753758,18.0363695 89.5904149,18.900318 C89.5210546,19.213786 89.3746273,19.7948486 89.2590267,20.1847723 C88.307249,23.4953004 86.9277493,25.2652478 85.2939284,25.2767162 C84.993367,25.2805389 84.9163,25.2652478 84.708219,25.1735011 C84.3113238,24.9938304 84.0069091,24.6191979 83.8335083,24.0992997 C83.6292807,23.4761865 83.6408407,23.9922619 83.6177206,15.8229795 C83.5984539,10.1193907 83.5830405,8.18506368 83.5445069,7.90982347 C83.1822919,5.16506693 82.0185799,3.54803069 79.9878638,2.96314525 C79.2480204,2.74906953 78.1228418,2.68408225 77.3714384,2.81023402 C75.1442014,3.18104374 73.121192,5.05420629 71.4025974,8.3379749 L71.102036,8.91903757 L71.0827692,7.33258358 C71.0673558,5.56263612 71.0635025,5.53969943 70.7822078,5.00068736 C70.3660459,4.20937175 69.5414288,3.65124577 68.4779038,3.45246117 C68.0617419,3.37218278 67.294925,3.36453722 67.009777,3.43334727 C66.3739741,3.59008128 65.9809323,3.93030876 65.9115719,4.38139688 C65.8961585,4.4769664 65.9308387,4.72544715 66.0156124,5.11919356 L66.142773,5.71172457 L66.1543331,11.614098 L66.1658931,17.5164714 L66.0695593,17.8070027 C66.0156124,17.9675595 65.9077186,18.3880654 65.8306516,18.7474067 C65.2372355,21.5189227 64.5128055,23.2468196 63.5070808,24.2827932 C63.114039,24.6880079 62.751824,24.9326659 62.3086886,25.1008683 C61.17195,25.5213741 60.0544781,25.2079061 59.4148219,24.286616 C59.1296739,23.8737556 58.8830594,23.1856551 58.7982857,22.5625419 C58.7404854,22.1343904 58.7751656,20.433253 58.8599393,19.6075324 C59.1412339,16.8092569 59.7539168,13.8733614 60.7981749,10.2799475 C60.9253355,9.84797328 61.1603899,9.04136655 61.326084,8.48324057 C61.7383926,7.07263449 61.7460993,6.81268541 61.4185645,6.12840766 C61.0255226,5.30268703 60.0352114,4.31258683 59.1181138,3.82709368 L58.7828723,3.64742299 L56.3167275,3.62448631 C54.0162768,3.60154962 53.7889291,3.59390406 52.9065117,3.49833454 C52.3863093,3.44481561 51.9277605,3.39129668 51.8853736,3.37982834 C51.8275734,3.36453722 51.7774798,3.2689677 51.681146,2.97079081 C51.5424254,2.53499381 51.2958109,2.03038676 51.0491964,1.66722259 C50.7023948,1.15879276 50.0396184,0.596843995 49.5001493,0.359831592 C48.7487458,0.0310724519 47.850915,-0.0797881883 47.0763914,0.0578319168 Z M12.9125798,42.5633305 C12.9164332,47.051275 12.9087265,47.3035785 12.7545924,48.0681347 C12.5734849,48.951197 12.2035632,49.5819558 11.7334543,49.8074999 C10.7084629,50.3006386 9.86457902,49.4366902 9.57172433,47.6017554 C9.49080396,47.1047939 9.48309726,45.8088713 9.55245758,45.1437074 C9.79907205,42.7582923 10.6005691,40.881307 12.1534696,39.0272583 C12.442471,38.6793853 12.8740463,38.2168288 12.8933131,38.2359427 C12.9010198,38.2397655 12.9087265,40.1893837 12.9125798,42.5633305 Z" id="Combined-Shape"></path>
            </g>
        </g>
    </g>
</svg>